<svg width="1329" height="719" viewBox="0 0 1329 719" fill="none" xmlns="http://www.w3.org/2000/svg">
<path d="M215.637 75L0 199.498C100.654 235.028 196.291 179.812 215.637 75Z" fill="url(#paint0_linear_311_5)"/>
<path d="M1286.95 445.779L937.738 647.044C1089.09 684.724 1243.96 595.461 1286.95 445.779Z" fill="url(#paint1_linear_311_5)"/>
<path d="M1083.62 88.6769C929.742 47.4892 771.712 138.569 730.507 292.189C727.589 303.067 725.211 313.914 723.702 324.816L1115.32 99.1076C1105.23 95.1697 1094.51 91.5936 1083.62 88.6769Z" fill="url(#paint2_linear_311_5)"/>
<path d="M1185.34 58.7549L793.544 284.563C783.663 350.557 797.371 415.797 829.097 470.652L1329 182.535C1297.27 127.68 1247.53 83.2094 1185.34 58.7549Z" fill="url(#paint3_linear_311_5)"/>
<path d="M1209.12 251.628L709.217 539.745C746.2 603.69 807.608 653.837 884.678 674.551C886.001 674.907 887.324 675.263 888.526 675.408L1237.16 474.475C1237.51 473.154 1237.87 471.832 1238.34 470.72C1258.69 393.856 1246.1 315.573 1209.12 251.628Z" fill="url(#paint4_linear_311_5)"/>
<rect x="1203.25" y="527.51" width="3.05551" height="3.05551" fill="#141313"/>
<rect x="1188.3" y="527.51" width="3.05551" height="3.05551" fill="#141313"/>
<rect x="1173" y="527.51" width="3.05551" height="3.05551" fill="#141313"/>
<rect x="1220.57" y="527" width="3.05551" height="3.05551" transform="rotate(30 1220.57 527)" fill="#141313"/>
<rect x="1237.47" y="527" width="3.05551" height="3.05551" transform="rotate(60 1237.47 527)" fill="#141313"/>
<rect x="1203.25" y="541.683" width="3.05551" height="3.05551" fill="#141313"/>
<rect x="1188.3" y="541.683" width="3.05551" height="3.05551" fill="#141313"/>
<rect x="1173" y="541.683" width="3.05551" height="3.05551" fill="#141313"/>
<rect x="1220.57" y="541.174" width="3.05551" height="3.05551" transform="rotate(30 1220.57 541.174)" fill="#141313"/>
<rect x="1237.47" y="541.174" width="3.05551" height="3.05551" transform="rotate(60 1237.47 541.174)" fill="#141313"/>
<rect x="1203.25" y="555.857" width="3.05551" height="3.05551" fill="#141313"/>
<rect x="1188.3" y="555.857" width="3.05551" height="3.05551" fill="#141313"/>
<rect x="1173" y="555.857" width="3.05551" height="3.05551" fill="#141313"/>
<rect x="1220.52" y="555.348" width="3.05551" height="3.05551" transform="rotate(30 1220.52 555.348)" fill="#141313"/>
<rect x="1237.47" y="555.348" width="3.05551" height="3.05551" transform="rotate(60 1237.47 555.348)" fill="#141313"/>
<rect x="1203.25" y="570.031" width="3.05551" height="3.05551" fill="#141313"/>
<rect x="1188.3" y="570.031" width="3.05551" height="3.05551" fill="#141313"/>
<rect x="1173" y="570.031" width="3.05551" height="3.05551" fill="#141313"/>
<rect x="1220.57" y="569.521" width="3.05551" height="3.05551" transform="rotate(30 1220.57 569.521)" fill="#141313"/>
<rect x="1237.47" y="569.521" width="3.05551" height="3.05551" transform="rotate(60 1237.47 569.521)" fill="#141313"/>
<rect x="1203.25" y="584.205" width="3.05551" height="3.05551" fill="#141313"/>
<rect x="1188.3" y="584.205" width="3.05551" height="3.05551" fill="#141313"/>
<rect x="1173" y="584.205" width="3.05551" height="3.05551" fill="#141313"/>
<rect x="1220.57" y="583.696" width="3.05551" height="3.05551" transform="rotate(30 1220.57 583.696)" fill="#141313"/>
<rect x="1237.47" y="583.696" width="3.05551" height="3.05551" transform="rotate(60 1237.47 583.696)" fill="#141313"/>
<rect x="1203.25" y="598.378" width="3.05551" height="3.05551" fill="#141313"/>
<rect x="1188.3" y="598.378" width="3.05551" height="3.05551" fill="#141313"/>
<rect x="1173" y="598.378" width="3.05551" height="3.05551" fill="#141313"/>
<rect x="1220.52" y="597.869" width="3.05551" height="3.05551" transform="rotate(30 1220.52 597.869)" fill="#141313"/>
<rect x="1237.47" y="597.869" width="3.05551" height="3.05551" transform="rotate(60 1237.47 597.869)" fill="#141313"/>
<rect x="1203.25" y="612.553" width="3.05551" height="3.05551" fill="#141313"/>
<rect x="1188.3" y="612.553" width="3.05551" height="3.05551" fill="#141313"/>
<rect x="1173" y="612.553" width="3.05551" height="3.05551" fill="#141313"/>
<rect x="1220.57" y="612.044" width="3.05551" height="3.05551" transform="rotate(30 1220.57 612.044)" fill="#141313"/>
<rect x="1237.47" y="612.044" width="3.05551" height="3.05551" transform="rotate(60 1237.47 612.044)" fill="#141313"/>
<rect x="1203.25" y="626.726" width="3.05551" height="3.05551" fill="#141313"/>
<rect x="1188.3" y="626.726" width="3.05551" height="3.05551" fill="#141313"/>
<rect x="1173" y="626.726" width="3.05551" height="3.05551" fill="#141313"/>
<rect x="1220.57" y="626.217" width="3.05551" height="3.05551" transform="rotate(30 1220.57 626.217)" fill="#141313"/>
<rect x="1237.47" y="626.217" width="3.05551" height="3.05551" transform="rotate(60 1237.47 626.217)" fill="#141313"/>
<g clip-path="url(#clip0_311_5)">
<path d="M1174.96 27.2605L1173.33 22.4404C1172.43 19.7783 1170.33 17.6088 1167.56 16.6712L1162.74 15.0373C1161.75 14.7024 1161.75 13.3001 1162.74 12.9653L1167.56 11.3313C1170.22 10.429 1172.39 8.32828 1173.33 5.56213L1174.96 0.742085C1175.3 -0.245681 1176.7 -0.245462 1177.04 0.742085L1178.67 5.56213C1179.57 8.22421 1181.67 10.3937 1184.44 11.3313L1189.26 12.9653C1190.25 13.3001 1190.25 14.7025 1189.26 15.0373L1184.44 16.6712C1181.78 17.5735 1179.61 19.6742 1178.67 22.4404L1177.04 27.2605C1176.7 28.2483 1175.3 28.248 1174.96 27.2605ZM1166.5 14.0012L1168.26 14.5991C1171.56 15.7157 1174.24 18.3151 1175.4 21.738L1176 23.5019L1176.6 21.738C1177.71 18.4439 1180.31 15.7594 1183.74 14.5991L1185.5 14.0012L1183.74 13.4033C1180.44 12.2867 1177.76 9.68732 1176.6 6.26443L1176 4.50048L1175.4 6.26443C1174.28 9.55847 1171.69 12.243 1168.26 13.4033L1166.5 14.0012Z" fill="#141313"/>
</g>
<g clip-path="url(#clip1_311_5)">
<path d="M738.186 466.419L736.902 462.631C736.193 460.54 734.543 458.835 732.369 458.098L728.582 456.815C727.806 456.552 727.806 455.45 728.582 455.187L732.369 453.903C734.461 453.194 736.165 451.543 736.902 449.37L738.186 445.583C738.449 444.807 739.551 444.807 739.814 445.583L741.098 449.37C741.807 451.462 743.457 453.166 745.631 453.903L749.418 455.187C750.194 455.45 750.194 456.552 749.418 456.815L745.631 458.098C743.539 458.807 741.835 460.458 741.098 462.631L739.814 466.419C739.551 467.195 738.449 467.195 738.186 466.419ZM731.535 456.001L732.921 456.47C735.509 457.348 737.619 459.39 738.53 462.08L739 463.465L739.47 462.08C740.347 459.491 742.39 457.382 745.079 456.47L746.465 456.001L745.079 455.531C742.491 454.653 740.381 452.611 739.47 449.922L739 448.536L738.53 449.922C737.653 452.51 735.611 454.619 732.921 455.531L731.535 456.001Z" fill="#141313"/>
</g>
<defs>
<linearGradient id="paint0_linear_311_5" x1="224.856" y1="119.099" x2="37.2265" y2="225.04" gradientUnits="userSpaceOnUse">
<stop stop-color="#FFB147"/>
<stop offset="0.520264" stop-color="#FF6C63"/>
<stop offset="1" stop-color="#B86ADF"/>
</linearGradient>
<linearGradient id="paint1_linear_311_5" x1="1295.73" y1="506.643" x2="991.479" y2="677.18" gradientUnits="userSpaceOnUse">
<stop stop-color="#FFB147"/>
<stop offset="0.520264" stop-color="#FF6C63"/>
<stop offset="1" stop-color="#B86ADF"/>
</linearGradient>
<linearGradient id="paint2_linear_311_5" x1="1076.89" y1="83.8912" x2="736.115" y2="275.911" gradientUnits="userSpaceOnUse">
<stop stop-color="#FFB147"/>
<stop offset="0.520264" stop-color="#FF6C63"/>
<stop offset="1" stop-color="#B86ADF"/>
</linearGradient>
<linearGradient id="paint3_linear_311_5" x1="1198.43" y1="191.437" x2="839.405" y2="398.639" gradientUnits="userSpaceOnUse">
<stop stop-color="#FF6C63"/>
<stop offset="0.520264" stop-color="#FFB147" stop-opacity="0.2"/>
</linearGradient>
<linearGradient id="paint4_linear_311_5" x1="1177.38" y1="383.657" x2="775.629" y2="626.399" gradientUnits="userSpaceOnUse">
<stop stop-color="#B238EF"/>
<stop offset="1" stop-color="#FFB147" stop-opacity="0.33"/>
</linearGradient>
<clipPath id="clip0_311_5">
<rect width="28" height="28" fill="white" transform="translate(1162)"/>
</clipPath>
<clipPath id="clip1_311_5">
<rect width="22" height="22" fill="white" transform="translate(728 445)"/>
</clipPath>
</defs>
</svg>
