<svg width="660" height="719" viewBox="0 0 660 719" fill="none" xmlns="http://www.w3.org/2000/svg">
<path d="M617.948 445.779L268.738 647.044C420.085 684.724 574.963 595.461 617.948 445.779Z" fill="url(#paint0_linear_1_515)"/>
<path d="M414.615 88.6769C260.742 47.4892 102.712 138.569 61.5073 292.189C58.5894 303.067 56.2109 313.914 54.7022 324.816L446.323 99.1076C436.231 95.1697 425.512 91.5936 414.615 88.6769Z" fill="url(#paint1_linear_1_515)"/>
<path d="M516.338 58.7549L124.544 284.563C114.663 350.557 128.371 415.797 160.097 470.652L660 182.535C628.274 127.68 578.53 83.2094 516.338 58.7549Z" fill="url(#paint2_linear_1_515)"/>
<path d="M540.12 251.628L40.2168 539.745C77.1998 603.69 138.608 653.837 215.678 674.551C217.001 674.907 218.324 675.263 219.526 675.408L568.159 474.475C568.512 473.154 568.865 471.832 569.339 470.72C589.694 393.856 577.103 315.573 540.12 251.628Z" fill="url(#paint3_linear_1_515)"/>
<rect x="534.252" y="527.51" width="3.05551" height="3.05551" fill="#141313"/>
<rect x="519.298" y="527.51" width="3.05551" height="3.05551" fill="#141313"/>
<rect x="504" y="527.51" width="3.05551" height="3.05551" fill="#141313"/>
<rect x="551.567" y="527" width="3.05551" height="3.05551" transform="rotate(30 551.567 527)" fill="#141313"/>
<rect x="568.472" y="527" width="3.05551" height="3.05551" transform="rotate(60 568.472 527)" fill="#141313"/>
<rect x="534.252" y="541.683" width="3.05551" height="3.05551" fill="#141313"/>
<rect x="519.298" y="541.683" width="3.05551" height="3.05551" fill="#141313"/>
<rect x="504" y="541.683" width="3.05551" height="3.05551" fill="#141313"/>
<rect x="551.567" y="541.174" width="3.05551" height="3.05551" transform="rotate(30 551.567 541.174)" fill="#141313"/>
<rect x="568.472" y="541.174" width="3.05551" height="3.05551" transform="rotate(60 568.472 541.174)" fill="#141313"/>
<rect x="534.252" y="555.857" width="3.05551" height="3.05551" fill="#141313"/>
<rect x="519.298" y="555.857" width="3.05551" height="3.05551" fill="#141313"/>
<rect x="504" y="555.857" width="3.05551" height="3.05551" fill="#141313"/>
<rect x="551.518" y="555.348" width="3.05551" height="3.05551" transform="rotate(30 551.518 555.348)" fill="#141313"/>
<rect x="568.472" y="555.348" width="3.05551" height="3.05551" transform="rotate(60 568.472 555.348)" fill="#141313"/>
<rect x="534.252" y="570.031" width="3.05551" height="3.05551" fill="#141313"/>
<rect x="519.298" y="570.031" width="3.05551" height="3.05551" fill="#141313"/>
<rect x="504" y="570.031" width="3.05551" height="3.05551" fill="#141313"/>
<rect x="551.567" y="569.521" width="3.05551" height="3.05551" transform="rotate(30 551.567 569.521)" fill="#141313"/>
<rect x="568.472" y="569.521" width="3.05551" height="3.05551" transform="rotate(60 568.472 569.521)" fill="#141313"/>
<rect x="534.252" y="584.205" width="3.05551" height="3.05551" fill="#141313"/>
<rect x="519.298" y="584.205" width="3.05551" height="3.05551" fill="#141313"/>
<rect x="504" y="584.205" width="3.05551" height="3.05551" fill="#141313"/>
<rect x="551.567" y="583.696" width="3.05551" height="3.05551" transform="rotate(30 551.567 583.696)" fill="#141313"/>
<rect x="568.472" y="583.696" width="3.05551" height="3.05551" transform="rotate(60 568.472 583.696)" fill="#141313"/>
<rect x="534.252" y="598.378" width="3.05551" height="3.05551" fill="#141313"/>
<rect x="519.298" y="598.378" width="3.05551" height="3.05551" fill="#141313"/>
<rect x="504" y="598.378" width="3.05551" height="3.05551" fill="#141313"/>
<rect x="551.518" y="597.869" width="3.05551" height="3.05551" transform="rotate(30 551.518 597.869)" fill="#141313"/>
<rect x="568.472" y="597.869" width="3.05551" height="3.05551" transform="rotate(60 568.472 597.869)" fill="#141313"/>
<rect x="534.252" y="612.553" width="3.05551" height="3.05551" fill="#141313"/>
<rect x="519.298" y="612.553" width="3.05551" height="3.05551" fill="#141313"/>
<rect x="504" y="612.553" width="3.05551" height="3.05551" fill="#141313"/>
<rect x="551.567" y="612.044" width="3.05551" height="3.05551" transform="rotate(30 551.567 612.044)" fill="#141313"/>
<rect x="568.472" y="612.044" width="3.05551" height="3.05551" transform="rotate(60 568.472 612.044)" fill="#141313"/>
<rect x="534.252" y="626.726" width="3.05551" height="3.05551" fill="#141313"/>
<rect x="519.298" y="626.726" width="3.05551" height="3.05551" fill="#141313"/>
<rect x="504" y="626.726" width="3.05551" height="3.05551" fill="#141313"/>
<rect x="551.567" y="626.217" width="3.05551" height="3.05551" transform="rotate(30 551.567 626.217)" fill="#141313"/>
<rect x="568.472" y="626.217" width="3.05551" height="3.05551" transform="rotate(60 568.472 626.217)" fill="#141313"/>
<g clip-path="url(#clip0_1_515)">
<path d="M505.964 27.2605L504.33 22.4404C503.427 19.7783 501.327 17.6088 498.56 16.6712L493.74 15.0373C492.753 14.7024 492.753 13.3001 493.74 12.9653L498.56 11.3313C501.222 10.429 503.392 8.32828 504.33 5.56213L505.964 0.742085C506.298 -0.245681 507.701 -0.245462 508.036 0.742085L509.669 5.56213C510.572 8.22421 512.672 10.3937 515.439 11.3313L520.259 12.9653C521.247 13.3001 521.246 14.7025 520.259 15.0373L515.439 16.6712C512.777 17.5735 510.607 19.6742 509.669 22.4404L508.036 27.2605C507.701 28.2483 506.298 28.248 505.964 27.2605ZM497.499 14.0012L499.263 14.5991C502.557 15.7157 505.241 18.3151 506.402 21.738L507 23.5019L507.597 21.738C508.714 18.4439 511.313 15.7594 514.736 14.5991L516.5 14.0012L514.736 13.4033C511.442 12.2867 508.758 9.68732 507.597 6.26443L507 4.50048L506.402 6.26443C505.285 9.55847 502.686 12.243 499.263 13.4033L497.499 14.0012Z" fill="#141313"/>
</g>
<g clip-path="url(#clip1_1_515)">
<path d="M69.186 466.419L67.9022 462.631C67.1932 460.54 65.5427 458.835 63.3693 458.098L59.582 456.815C58.8059 456.552 58.8061 455.45 59.582 455.187L63.3693 453.903C65.4609 453.194 67.1655 451.543 67.9022 449.37L69.186 445.583C69.4491 444.807 70.551 444.807 70.814 445.583L72.0978 449.37C72.8069 451.462 74.4573 453.166 76.6308 453.903L80.418 455.187C81.1941 455.45 81.1939 456.552 80.418 456.815L76.6308 458.098C74.5392 458.807 72.8346 460.458 72.0978 462.631L70.814 466.419C70.5509 467.195 69.449 467.195 69.186 466.419ZM62.5352 456.001L63.9211 456.47C66.5093 457.348 68.6186 459.39 69.5302 462.08L70 463.465L70.4698 462.08C71.3472 459.491 73.3895 457.382 76.0789 456.47L77.4648 456.001L76.0789 455.531C73.4907 454.653 71.3815 452.611 70.4698 449.922L70 448.536L69.5302 449.922C68.6529 452.51 66.6105 454.619 63.9211 455.531L62.5352 456.001Z" fill="#141313"/>
</g>
<defs>
<linearGradient id="paint0_linear_1_515" x1="626.726" y1="506.643" x2="322.479" y2="677.18" gradientUnits="userSpaceOnUse">
<stop stop-color="#FFB147"/>
<stop offset="0.520264" stop-color="#FF6C63"/>
<stop offset="1" stop-color="#B86ADF"/>
</linearGradient>
<linearGradient id="paint1_linear_1_515" x1="407.89" y1="83.8912" x2="67.1154" y2="275.911" gradientUnits="userSpaceOnUse">
<stop stop-color="#FFB147"/>
<stop offset="0.520264" stop-color="#FF6C63"/>
<stop offset="1" stop-color="#B86ADF"/>
</linearGradient>
<linearGradient id="paint2_linear_1_515" x1="529.428" y1="191.437" x2="170.405" y2="398.639" gradientUnits="userSpaceOnUse">
<stop stop-color="#FF6C63"/>
<stop offset="0.520264" stop-color="#FFB147" stop-opacity="0.2"/>
</linearGradient>
<linearGradient id="paint3_linear_1_515" x1="508.384" y1="383.657" x2="106.629" y2="626.399" gradientUnits="userSpaceOnUse">
<stop stop-color="#B238EF"/>
<stop offset="1" stop-color="#FFB147" stop-opacity="0.33"/>
</linearGradient>
<clipPath id="clip0_1_515">
<rect width="28" height="28" fill="white" transform="translate(493)"/>
</clipPath>
<clipPath id="clip1_1_515">
<rect width="22" height="22" fill="white" transform="translate(59 445)"/>
</clipPath>
</defs>
</svg>
