<svg width="32" height="32" viewBox="0 0 32 32" fill="none" xmlns="http://www.w3.org/2000/svg">
<circle cx="16" cy="16.0001" r="16" fill="#141313" fill-opacity="0.05"/>
<path fill-rule="evenodd" clip-rule="evenodd" d="M10.4942 9.63452C9.06897 9.63452 7.91357 10.7899 7.91357 12.2152V20.8173C7.91357 22.2426 9.06897 23.398 10.4942 23.398H22.5372C23.9625 23.398 25.1179 22.2426 25.1179 20.8173V12.2152C25.1179 10.7899 23.9625 9.63452 22.5372 9.63452H10.4942ZM9.71255 11.8555C9.84873 11.5601 10.1475 11.355 10.4942 11.355H22.5372C22.8839 11.355 23.1827 11.5601 23.3189 11.8555L17.0438 16.7361C16.7332 16.9777 16.2982 16.9777 15.9876 16.7361L9.71255 11.8555ZM9.634 13.974V18.9807L12.7416 16.391L9.634 13.974ZM9.70532 21.1608C9.83792 21.4649 10.1412 21.6775 10.4942 21.6775H22.5372C22.8902 21.6775 23.1935 21.4649 23.3261 21.1608L18.8998 17.4722L18.1001 18.0942C17.1682 18.819 15.8633 18.819 14.9314 18.0942L14.1317 17.4722L9.70532 21.1608ZM23.3974 18.9807V13.974L20.2898 16.391L23.3974 18.9807Z" fill="#141313"/>
</svg>
