<svg width="40" height="40" viewBox="0 0 40 40" fill="none" xmlns="http://www.w3.org/2000/svg">
<circle cx="20" cy="20" r="20" fill="#141313" fill-opacity="0.05"/>
<path fill-rule="evenodd" clip-rule="evenodd" d="M14.1076 13.6907C15.5721 12.2262 17.9465 12.2262 19.4109 13.6907C20.8754 15.1552 20.8754 17.5295 19.4109 18.994C18.8658 19.5391 18.1947 19.8813 17.4913 20.0206L19.5628 22.0922C19.7021 21.3888 20.0443 20.7176 20.5894 20.1725C22.0539 18.7081 24.4283 18.7081 25.8927 20.1725C27.3572 21.637 27.3572 24.0114 25.8927 25.4758C24.5279 26.8407 22.3726 26.9335 20.9003 25.7543L20.8841 25.7705L20.5894 25.4758L14.1076 18.994L13.813 18.6994L13.8292 18.6832C12.6499 17.2108 12.7427 15.0556 14.1076 13.6907ZM21.768 24.2973C22.5815 25.1109 23.9006 25.1109 24.7142 24.2973C25.5278 23.4837 25.5278 22.1646 24.7142 21.351C23.9006 20.5374 22.5815 20.5374 21.768 21.351C20.9544 22.1646 20.9544 23.4837 21.768 24.2973ZM18.2324 17.8155C17.4188 18.6291 16.0997 18.6291 15.2861 17.8155C14.4725 17.0019 14.4725 15.6828 15.2861 14.8692C16.0997 14.0556 17.4188 14.0556 18.2324 14.8692C19.046 15.6828 19.046 17.0019 18.2324 17.8155Z" fill="#141313"/>
</svg>
