<svg width="74" height="23" viewBox="0 0 74 23" fill="none" xmlns="http://www.w3.org/2000/svg">
<path d="M0.970031 15.416H2.41003V6.848L0.970031 6.536V5.168L5.98603 4.136V6.512H6.10603C6.33003 5.872 6.73003 5.32 7.30603 4.856C7.88203 4.376 8.67403 4.136 9.68203 4.136C11.218 4.136 12.298 4.528 12.922 5.312C13.562 6.08 13.882 7.24 13.882 8.792V15.416H15.322V17H8.91403V15.416H10.234V8.912C10.234 8.064 10.082 7.464 9.77803 7.112C9.49003 6.744 8.99403 6.56 8.29003 6.56C8.01803 6.56 7.74603 6.6 7.47403 6.68C7.20203 6.744 6.96203 6.856 6.75403 7.016C6.54603 7.16 6.37803 7.352 6.25003 7.592C6.12203 7.816 6.05803 8.096 6.05803 8.432V15.416H7.37803V17H0.970031V15.416ZM23.0287 17.288C22.0367 17.288 21.1567 17.128 20.3887 16.808C19.6367 16.472 18.9967 16.016 18.4687 15.44C17.9567 14.848 17.5647 14.152 17.2927 13.352C17.0207 12.536 16.8847 11.648 16.8847 10.688C16.8847 9.68 17.0207 8.768 17.2927 7.952C17.5807 7.136 17.9807 6.448 18.4927 5.888C19.0207 5.328 19.6447 4.896 20.3647 4.592C21.1007 4.288 21.9167 4.136 22.8127 4.136C23.7087 4.136 24.5167 4.272 25.2367 4.544C25.9567 4.816 26.5647 5.208 27.0607 5.72C27.5727 6.216 27.9647 6.824 28.2367 7.544C28.5087 8.264 28.6447 9.064 28.6447 9.944V10.76H20.7487V11.72C20.7487 12.792 21.0287 13.6 21.5887 14.144C22.1487 14.688 22.8927 14.96 23.8207 14.96C24.6847 14.96 25.3807 14.768 25.9087 14.384C26.4367 13.984 26.8127 13.504 27.0367 12.944L28.3567 13.736C28.2127 14.136 28.0047 14.544 27.7327 14.96C27.4607 15.376 27.1087 15.76 26.6767 16.112C26.2447 16.448 25.7247 16.728 25.1167 16.952C24.5087 17.176 23.8127 17.288 23.0287 17.288ZM20.7487 9.248H24.8767V8.912C24.8767 7.76 24.6927 6.952 24.3247 6.488C23.9567 6.024 23.4527 5.792 22.8127 5.792C22.1727 5.792 21.6687 6.024 21.3007 6.488C20.9327 6.952 20.7487 7.76 20.7487 8.912V9.248ZM32.332 22.088C31.372 22.088 30.628 21.848 30.1 21.368C29.572 20.904 29.308 20.344 29.308 19.688C29.308 19.112 29.468 18.664 29.788 18.344C30.124 18.024 30.58 17.864 31.156 17.864C31.716 17.864 32.148 18.04 32.452 18.392C32.756 18.744 32.908 19.152 32.908 19.616C32.908 19.824 32.876 20.016 32.812 20.192C32.748 20.384 32.676 20.536 32.596 20.648L32.644 20.792C32.708 20.808 32.796 20.816 32.908 20.816C33.324 20.816 33.708 20.592 34.06 20.144C34.412 19.696 34.748 19.056 35.068 18.224L35.308 17.6L30.748 6.008H29.596V4.424H35.908V6.008H34.564L37.084 13.28H37.228L39.772 6.008H38.428V4.424H42.844V6.008H41.716L36.676 18.296C36.5 18.728 36.292 19.168 36.052 19.616C35.812 20.08 35.524 20.488 35.188 20.84C34.852 21.208 34.452 21.504 33.988 21.728C33.524 21.968 32.972 22.088 32.332 22.088ZM49.211 17.288C47.675 17.288 46.587 16.904 45.947 16.136C45.323 15.352 45.011 14.184 45.011 12.632V6.848L43.571 6.536V5.168L48.659 4.136V12.512C48.659 13.36 48.803 13.968 49.091 14.336C49.395 14.688 49.899 14.864 50.603 14.864C50.875 14.864 51.147 14.832 51.419 14.768C51.691 14.688 51.931 14.576 52.139 14.432C52.347 14.272 52.515 14.08 52.643 13.856C52.771 13.616 52.835 13.328 52.835 12.992V6.848L51.395 6.536V5.168L56.483 4.136V14.576L57.923 14.888V16.256L52.907 17.288V14.912H52.787C52.563 15.552 52.163 16.112 51.587 16.592C51.011 17.056 50.219 17.288 49.211 17.288ZM63.55 17.24C62.59 17.24 61.878 17.032 61.414 16.616C60.966 16.184 60.742 15.552 60.742 14.72V6.104H59.062V4.424H59.71C60.238 4.424 60.622 4.312 60.862 4.088C61.118 3.848 61.358 3.496 61.582 3.032L62.59 0.943999H64.39V4.424H67.15V6.104H64.39V15.368H67.15V16.784C66.894 16.896 66.438 17 65.782 17.096C65.126 17.192 64.382 17.24 63.55 17.24ZM71.5285 17.288C70.8245 17.288 70.2885 17.088 69.9205 16.688C69.5525 16.272 69.3685 15.776 69.3685 15.2V15.104C69.3685 14.528 69.5525 14.04 69.9205 13.64C70.2885 13.224 70.8245 13.016 71.5285 13.016C72.2325 13.016 72.7685 13.224 73.1365 13.64C73.5045 14.04 73.6885 14.528 73.6885 15.104V15.2C73.6885 15.776 73.5045 16.272 73.1365 16.688C72.7685 17.088 72.2325 17.288 71.5285 17.288Z" fill="#141313"/>
</svg>
