<svg width="40" height="40" viewBox="0 0 40 40" fill="none" xmlns="http://www.w3.org/2000/svg">
<circle cx="20" cy="20" r="20" fill="#141313" fill-opacity="0.05"/>
<path fill-rule="evenodd" clip-rule="evenodd" d="M14.1665 13.3335C12.7858 13.3335 11.6665 14.4528 11.6665 15.8335V24.1668C11.6665 25.5475 12.7858 26.6668 14.1665 26.6668H25.8332C27.2139 26.6668 28.3332 25.5475 28.3332 24.1668V15.8335C28.3332 14.4528 27.2139 13.3335 25.8332 13.3335H14.1665ZM13.4093 15.4851C13.5412 15.1989 13.8306 15.0002 14.1665 15.0002H25.8332C26.169 15.0002 26.4585 15.1989 26.5904 15.4851L20.5115 20.2132C20.2105 20.4472 19.7891 20.4472 19.4882 20.2132L13.4093 15.4851ZM13.3332 17.5374V22.3876L16.3437 19.8789L13.3332 17.5374ZM13.4023 24.4996C13.5307 24.7942 13.8246 25.0002 14.1665 25.0002H25.8332C26.1751 25.0002 26.469 24.7942 26.5974 24.4996L22.3094 20.9262L21.5347 21.5288C20.6319 22.2309 19.3678 22.2309 18.465 21.5288L17.6903 20.9262L13.4023 24.4996ZM26.6665 22.3876V17.5374L23.656 19.8789L26.6665 22.3876Z" fill="#141313"/>
</svg>
