<svg width="40" height="40" viewBox="0 0 40 40" fill="none" xmlns="http://www.w3.org/2000/svg">
<circle cx="20" cy="20" r="20" fill="#141313" fill-opacity="0.05"/>
<path fill-rule="evenodd" clip-rule="evenodd" d="M23.5842 19.8792L19.9998 25.7916L16.4154 19.8792C14.6769 17.0116 16.6969 13.3089 19.9998 13.3089C23.3028 13.3089 25.3228 17.0116 23.5842 19.8792ZM15.0478 20.7437C12.6459 16.7819 15.4366 11.6665 19.9998 11.6665C24.5631 11.6665 27.3537 16.7819 24.9519 20.7437L20.5354 28.0285C20.2892 28.4347 19.7105 28.4347 19.4643 28.0285L15.0478 20.7437ZM20 15.7726C19.1117 15.7726 18.3915 16.5079 18.3915 17.415C18.3915 18.3221 19.1117 19.0574 20 19.0574C20.8883 19.0574 21.6085 18.3221 21.6085 17.415C21.6085 16.5079 20.8883 15.7726 20 15.7726Z" fill="black"/>
</svg>
