<svg width="64" height="64" viewBox="0 0 64 64" fill="none" xmlns="http://www.w3.org/2000/svg">
<g opacity="0.2">
<path d="M12.2215 46.1895C9.47487 43.2722 8.00021 40.0002 8.00021 34.6962C8.00021 25.3628 14.5522 16.9975 24.0802 12.8615L26.4615 16.5362C17.5682 21.3468 15.8295 27.5895 15.1362 31.5255C16.5682 30.7842 18.4429 30.5255 20.2802 30.6962C25.0909 31.1415 28.8829 35.0908 28.8829 40.0002C28.8829 42.4755 27.8995 44.8495 26.1492 46.5998C24.3989 48.3502 22.0249 49.3335 19.5495 49.3335C16.6882 49.3335 13.9522 48.0268 12.2215 46.1895ZM38.8882 46.1895C36.1415 43.2722 34.6669 40.0002 34.6669 34.6962C34.6669 25.3628 41.2189 16.9975 50.7469 12.8615L53.1282 16.5362C44.2349 21.3468 42.4962 27.5895 41.8029 31.5255C43.2349 30.7842 45.1095 30.5255 46.9469 30.6962C51.7575 31.1415 55.5469 35.0908 55.5469 40.0002C55.5469 42.4755 54.5635 44.8495 52.8132 46.5998C51.0629 48.3502 48.6889 49.3335 46.2135 49.3335C43.3522 49.3335 40.6162 48.0268 38.8855 46.1895L38.8882 46.1895Z" fill="white"/>
</g>
</svg>
