<svg width="40" height="40" viewBox="0 0 40 40" fill="none" xmlns="http://www.w3.org/2000/svg">
<circle cx="20" cy="20" r="20" fill="#141313" fill-opacity="0.05"/>
<path fill-rule="evenodd" clip-rule="evenodd" d="M13.3332 14.1667C13.3332 13.7065 13.7063 13.3334 14.1665 13.3334H25.8332C26.2934 13.3334 26.6665 13.7065 26.6665 14.1667V25.8334C26.6665 26.2937 26.2934 26.6667 25.8332 26.6667L24.9998 26.6667C24.9998 24.3656 23.1344 22.5001 20.8332 22.5001H19.1665C16.8653 22.5001 14.9998 24.3656 14.9998 26.6667L14.1665 26.6667C13.7063 26.6667 13.3332 26.2937 13.3332 25.8334V14.1667ZM16.6665 26.6667H23.3332C23.3332 25.286 22.2139 24.1667 20.8332 24.1667H19.1665C17.7858 24.1667 16.6665 25.286 16.6665 26.6667ZM14.1665 11.6667C12.7858 11.6667 11.6665 12.786 11.6665 14.1667V25.8334C11.6665 27.2141 12.7858 28.3334 14.1665 28.3334H25.8332C27.2139 28.3334 28.3332 27.2141 28.3332 25.8334V14.1667C28.3332 12.786 27.2139 11.6667 25.8332 11.6667H14.1665ZM18.3332 18.3334C18.3332 19.2539 19.0794 20.0001 19.9998 20.0001C20.9203 20.0001 21.6665 19.2539 21.6665 18.3334C21.6665 17.4129 20.9203 16.6667 19.9998 16.6667C19.0794 16.6667 18.3332 17.4129 18.3332 18.3334ZM19.9998 15.0001C18.1589 15.0001 16.6665 16.4925 16.6665 18.3334C16.6665 20.1744 18.1589 21.6667 19.9998 21.6667C21.8408 21.6667 23.3332 20.1744 23.3332 18.3334C23.3332 16.4925 21.8408 15.0001 19.9998 15.0001Z" fill="#141313"/>
</svg>
