<svg width="40" height="40" viewBox="0 0 40 40" fill="none" xmlns="http://www.w3.org/2000/svg">
<circle cx="20" cy="20" r="19.5" transform="rotate(-90 20 20)" stroke="white"/>
<path d="M16.7236 12.5087C15.9101 12.5445 15.3508 12.6761 14.8662 12.8645C14.3517 13.059 13.8912 13.3581 13.5083 13.7499C13.1195 14.1328 12.8173 14.5964 12.626 15.1049C12.4375 15.5923 12.3059 16.1487 12.2701 16.9622C12.2312 17.7818 12.2222 18.042 12.2222 20.1208C12.2222 22.1995 12.2312 22.4597 12.267 23.2763C12.3029 24.0898 12.4346 24.6491 12.6229 25.1336C12.8173 25.6482 13.1164 26.1088 13.5083 26.4916C13.8912 26.8805 14.3548 27.1825 14.8633 27.374C15.3508 27.5624 15.9071 27.694 16.7206 27.7299C17.5402 27.7688 17.8004 27.7778 19.8792 27.7778C21.9579 27.7778 22.2181 27.7688 23.0347 27.7329C23.8482 27.697 24.4075 27.5654 24.8921 27.3769C25.4066 27.1825 25.8671 26.8805 26.25 26.4916C26.6388 26.1088 26.941 25.6452 27.1324 25.1367C27.3208 24.6491 27.4524 24.0929 27.4882 23.2792C27.5242 22.4628 27.5331 22.2025 27.5331 20.1237C27.5331 18.0449 27.5242 17.7848 27.4882 16.9682C27.4524 16.1547 27.3208 15.5954 27.1324 15.1108C26.7345 14.0819 25.921 13.2683 24.8921 12.8705C24.4046 12.6822 23.8482 12.5505 23.0347 12.5146C22.2181 12.4787 21.9579 12.4697 19.8792 12.4697C17.8004 12.4697 17.5402 12.4728 16.7236 12.5087ZM22.9749 13.8874C23.7226 13.9204 24.1264 14.046 24.3956 14.1507C25.0626 14.4079 25.592 14.9373 25.8493 15.6044C25.954 15.8735 26.0796 16.2802 26.1124 17.0251C26.1484 17.8327 26.1572 18.0749 26.1572 20.1177C26.1572 22.1606 26.1484 22.4059 26.1124 23.2105C26.0796 23.9583 25.954 24.3621 25.8493 24.6312C25.7266 24.9632 25.5322 25.2653 25.2779 25.5106C25.0297 25.7648 24.7306 25.9592 24.3986 26.0819C24.1294 26.1866 23.7226 26.3122 22.9779 26.345C22.1703 26.381 21.928 26.3899 19.8851 26.3899C17.8422 26.3899 17.597 26.381 16.7925 26.345C16.0447 26.3122 15.6409 26.1866 15.3717 26.0819C15.0397 25.9592 14.7377 25.7648 14.4923 25.5075C14.2381 25.2594 14.0436 24.9603 13.9211 24.6282C13.8164 24.359 13.6908 23.9522 13.6579 23.2075C13.622 22.3999 13.613 22.1576 13.613 20.1148C13.613 18.0689 13.622 17.8267 13.6579 17.022C13.6908 16.2743 13.8164 15.8705 13.9211 15.6013C14.0436 15.2694 14.2381 14.9672 14.4923 14.722C14.7406 14.4678 15.0397 14.2734 15.3717 14.1507C15.6409 14.046 16.0476 13.9204 16.7925 13.8874C17.6 13.8516 17.8422 13.8426 19.8851 13.8426C21.928 13.8426 22.1673 13.8516 22.9749 13.8874Z" fill="white"/>
<path d="M15.9463 20.1215C15.9463 22.2929 17.7079 24.0547 19.8795 24.0547C22.051 24.0547 23.8127 22.2929 23.8127 20.1215C23.8127 17.95 22.051 16.1883 19.8795 16.1883C17.7079 16.1883 15.9463 17.95 15.9463 20.1215ZM22.4308 20.1215C22.4308 21.5302 21.2883 22.6729 19.8795 22.6729C18.4707 22.6729 17.3281 21.5302 17.3281 20.1215C17.3281 18.7127 18.4707 17.5701 19.8795 17.5701C21.2883 17.5701 22.4308 18.7127 22.4308 20.1215Z" fill="white"/>
<path d="M15.7901 15.1144C16.2971 15.1144 16.7082 15.5255 16.7082 16.0326C16.7082 16.5396 16.2971 16.9506 15.7901 16.9506C15.283 16.9506 14.8721 16.5396 14.8721 16.0326C14.8721 15.5255 15.283 15.1144 15.7901 15.1144Z" fill="white"/>
</svg>
