<svg width="92" height="28" viewBox="0 0 92 28" fill="none" xmlns="http://www.w3.org/2000/svg">
<path d="M0.337539 19.02H2.13754V8.31L0.337539 7.92V6.21L6.60754 4.92V7.89H6.75754C7.03754 7.09 7.53754 6.4 8.25754 5.82C8.97754 5.22 9.96754 4.92 11.2275 4.92C13.1475 4.92 14.4975 5.41 15.2775 6.39C16.0775 7.35 16.4775 8.8 16.4775 10.74V19.02H18.2775V21H10.2675V19.02H11.9175V10.89C11.9175 9.83 11.7275 9.08 11.3475 8.64C10.9875 8.18 10.3675 7.95 9.48754 7.95C9.14754 7.95 8.80754 8 8.46754 8.1C8.12754 8.18 7.82754 8.32 7.56754 8.52C7.30754 8.7 7.09754 8.94 6.93754 9.24C6.77754 9.52 6.69754 9.87 6.69754 10.29V19.02H8.34754V21H0.337539V19.02ZM27.9108 21.36C26.6708 21.36 25.5708 21.16 24.6108 20.76C23.6708 20.34 22.8708 19.77 22.2108 19.05C21.5708 18.31 21.0808 17.44 20.7408 16.44C20.4008 15.42 20.2308 14.31 20.2308 13.11C20.2308 11.85 20.4008 10.71 20.7408 9.69C21.1008 8.67 21.6008 7.81 22.2408 7.11C22.9008 6.41 23.6808 5.87 24.5808 5.49C25.5008 5.11 26.5208 4.92 27.6408 4.92C28.7608 4.92 29.7708 5.09 30.6708 5.43C31.5708 5.77 32.3308 6.26 32.9508 6.9C33.5908 7.52 34.0808 8.28 34.4208 9.18C34.7608 10.08 34.9308 11.08 34.9308 12.18V13.2H25.0608V14.4C25.0608 15.74 25.4108 16.75 26.1108 17.43C26.8108 18.11 27.7408 18.45 28.9008 18.45C29.9808 18.45 30.8508 18.21 31.5108 17.73C32.1708 17.23 32.6408 16.63 32.9208 15.93L34.5708 16.92C34.3908 17.42 34.1308 17.93 33.7908 18.45C33.4508 18.97 33.0108 19.45 32.4708 19.89C31.9308 20.31 31.2808 20.66 30.5208 20.94C29.7608 21.22 28.8908 21.36 27.9108 21.36ZM25.0608 11.31H30.2208V10.89C30.2208 9.45 29.9908 8.44 29.5308 7.86C29.0708 7.28 28.4408 6.99 27.6408 6.99C26.8408 6.99 26.2108 7.28 25.7508 7.86C25.2908 8.44 25.0608 9.45 25.0608 10.89V11.31ZM39.54 27.36C38.34 27.36 37.41 27.06 36.75 26.46C36.09 25.88 35.76 25.18 35.76 24.36C35.76 23.64 35.96 23.08 36.36 22.68C36.78 22.28 37.35 22.08 38.07 22.08C38.77 22.08 39.31 22.3 39.69 22.74C40.07 23.18 40.26 23.69 40.26 24.27C40.26 24.53 40.22 24.77 40.14 24.99C40.06 25.23 39.97 25.42 39.87 25.56L39.93 25.74C40.01 25.76 40.12 25.77 40.26 25.77C40.78 25.77 41.26 25.49 41.7 24.93C42.14 24.37 42.56 23.57 42.96 22.53L43.26 21.75L37.56 7.26H36.12V5.28H44.01V7.26H42.33L45.48 16.35H45.66L48.84 7.26H47.16V5.28H52.68V7.26H51.27L44.97 22.62C44.75 23.16 44.49 23.71 44.19 24.27C43.89 24.85 43.53 25.36 43.11 25.8C42.69 26.26 42.19 26.63 41.61 26.91C41.03 27.21 40.34 27.36 39.54 27.36ZM60.6387 21.36C58.7187 21.36 57.3587 20.88 56.5587 19.92C55.7787 18.94 55.3887 17.48 55.3887 15.54V8.31L53.5887 7.92V6.21L59.9487 4.92V15.39C59.9487 16.45 60.1287 17.21 60.4887 17.67C60.8687 18.11 61.4987 18.33 62.3787 18.33C62.7187 18.33 63.0587 18.29 63.3987 18.21C63.7387 18.11 64.0387 17.97 64.2987 17.79C64.5587 17.59 64.7687 17.35 64.9287 17.07C65.0887 16.77 65.1687 16.41 65.1687 15.99V8.31L63.3687 7.92V6.21L69.7287 4.92V17.97L71.5287 18.36V20.07L65.2587 21.36V18.39H65.1087C64.8287 19.19 64.3287 19.89 63.6087 20.49C62.8887 21.07 61.8987 21.36 60.6387 21.36ZM78.5625 21.3C77.3625 21.3 76.4725 21.04 75.8925 20.52C75.3325 19.98 75.0525 19.19 75.0525 18.15V7.38H72.9525V5.28H73.7625C74.4225 5.28 74.9025 5.14 75.2025 4.86C75.5225 4.56 75.8225 4.12 76.1025 3.54L77.3625 0.929999H79.6125V5.28H83.0625V7.38H79.6125V18.96H83.0625V20.73C82.7425 20.87 82.1725 21 81.3525 21.12C80.5325 21.24 79.6025 21.3 78.5625 21.3ZM88.5357 21.36C87.6557 21.36 86.9857 21.11 86.5257 20.61C86.0657 20.09 85.8357 19.47 85.8357 18.75V18.63C85.8357 17.91 86.0657 17.3 86.5257 16.8C86.9857 16.28 87.6557 16.02 88.5357 16.02C89.4157 16.02 90.0857 16.28 90.5457 16.8C91.0057 17.3 91.2357 17.91 91.2357 18.63V18.75C91.2357 19.47 91.0057 20.09 90.5457 20.61C90.0857 21.11 89.4157 21.36 88.5357 21.36Z" fill="white"/>
</svg>
